<?xml version="1.0" standalone="no"?>
<!DOCTYPE svg PUBLIC "-//W3C//DTD SVG 1.1//EN" "http://www.w3.org/Graphics/SVG/1.1/DTD/svg11.dtd">
<!--Generator: Xara Xtreme (www.xara.com), SVG filter version: 1.0.0.13-->
<svg stroke-width="0.501" stroke-linejoin="bevel" fill-rule="evenodd" xmlns:xlink="http://www.w3.org/1999/xlink" xmlns="http://www.w3.org/2000/svg" version="1.1" overflow="visible" width="320.67pt" height="99.689pt" viewBox="0 0 320.67 99.689">
 <defs>
  <marker id="DefaultArrow2" markerUnits="strokeWidth" viewBox="0 0 1 1" markerWidth="1" markerHeight="1" overflow="visible" orient="auto">
   <!-- REF_ARROW_STRAIGHT (-2) -->
   <g transform="scale(0.0092592592)">
    <!-- 1/108 -->
    <path d="M -9 54 L -9 -54 L 117 0 z"/>
   </g>
  </marker>
  <marker id="DefaultArrow3" markerUnits="strokeWidth" viewBox="0 0 1 1" markerWidth="1" markerHeight="1" overflow="visible" orient="auto">
   <!-- REF_ARROW_ANGLED -->
   <g transform="scale(0.0092592592)">
    <path d="M -27 54 L -9 0 L -27 -54 L 135 0 z"/>
   </g>
  </marker>
  <marker id="DefaultArrow4" markerUnits="strokeWidth" viewBox="0 0 1 1" markerWidth="1" markerHeight="1" overflow="visible" orient="auto">
   <!-- REF_ARROW_ROUNDED -->
   <g transform="scale(0.0092592592)">
    <path d="M -9,0 L -9,-45 C -9,-51.708 2.808,-56.580 9,-54 L 117,-9 C 120.916,-7.369 126.000,-4.242 126,0 C 126,4.242 120.916,7.369 117,9 L 9,54 C 2.808,56.580 -9,51.708 -9,45 z"/>
   </g>
  </marker>
  <marker id="DefaultArrow5" markerUnits="strokeWidth" viewBox="0 0 1 1" markerWidth="1" markerHeight="1" overflow="visible" orient="auto">
   <!-- REF_ARROW_SPOT -->
   <g transform="scale(0.0092592592)">
    <path d="M -54, 0 C -54,29.807 -29.807,54 0,54 C 29.807,54 54,29.807 54,0 C 54,-29.807 29.807,-54 0,-54 C -29.807,-54 -54,-29.807 -54,0 z"/>
   </g>
  </marker>
  <marker id="DefaultArrow6" markerUnits="strokeWidth" viewBox="0 0 1 1" markerWidth="1" markerHeight="1" overflow="visible" orient="auto">
   <!-- REF_ARROW_DIAMOND -->
   <g transform="scale(0.0092592592)">
    <path d="M -63,0 L 0,63 L 63,0 L 0,-63 z"/>
   </g>
  </marker>
  <marker id="DefaultArrow7" markerUnits="strokeWidth" viewBox="0 0 1 1" markerWidth="1" markerHeight="1" overflow="visible" orient="auto">
   <!-- REF_ARROW_FEATHER -->
   <g transform="scale(0.0092592592)">
    <path d="M 18,-54 L 108,-54 L 63,0 L 108,54 L 18, 54 L -36,0 z"/>
   </g>
  </marker>
  <marker id="DefaultArrow8" markerUnits="strokeWidth" viewBox="0 0 1 1" markerWidth="1" markerHeight="1" overflow="visible" orient="auto">
   <!-- REF_ARROW_FEATHER2 -->
   <g transform="scale(0.0092592592)">
    <path d="M -36,0 L 18,-54 L 54,-54 L 18,-18 L 27,-18 L 63,-54 L 99,-54 L 63,-18 L 72,-18 L 108,-54 L 144,-54 L 90,0 L 144,54 L 108,54 L 72,18 L 63,18 L 99,54 L 63,54 L 27,18 L 18,18 L 54,54 L 18,54 z"/>
   </g>
  </marker>
  <marker id="DefaultArrow9" markerUnits="strokeWidth" viewBox="0 0 1 1" markerWidth="1" markerHeight="1" overflow="visible" orient="auto">
   <!-- REF_ARROW_HOLLOWDIAMOND -->
   <g transform="scale(0.0092592592)">
    <path d="M 0,45 L -45,0 L 0, -45 L 45, 0 z M 0, 63 L-63, 0 L 0, -63 L 63, 0 z"/>
   </g>
  </marker>
  <filter id="StainedFilter">
   <feBlend mode="multiply" in2="BackgroundImage" in="SourceGraphic" result="blend"/>
   <feComposite in="blend" in2="SourceAlpha" operator="in" result="comp"/>
  </filter>
  <filter id="BleachFilter">
   <feBlend mode="screen" in2="BackgroundImage" in="SourceGraphic" result="blend"/>
   <feComposite in="blend" in2="SourceAlpha" operator="in" result="comp"/>
  </filter>
  <filter id="InvertTransparencyBitmapFilter">
   <feComponentTransfer>
    <feFuncR type="gamma" amplitude="1.055" exponent=".416666666" offset="-0.055"/>
    <feFuncG type="gamma" amplitude="1.055" exponent=".416666666" offset="-0.055"/>
    <feFuncB type="gamma" amplitude="1.055" exponent=".416666666" offset="-0.055"/>
   </feComponentTransfer>
   <feComponentTransfer>
    <feFuncR type="linear" slope="-1" intercept="1"/>
    <feFuncG type="linear" slope="-1" intercept="1"/>
    <feFuncB type="linear" slope="-1" intercept="1"/>
    <feFuncA type="linear" slope="1" intercept="0"/>
   </feComponentTransfer>
   <feComponentTransfer>
    <feFuncR type="gamma" amplitude="1" exponent="2.4" offset="0"/>
    <feFuncG type="gamma" amplitude="1" exponent="2.4" offset="0"/>
    <feFuncB type="gamma" amplitude="1" exponent="2.4" offset="0"/>
   </feComponentTransfer>
  </filter>
 </defs>
 <g id="Document" fill="none" stroke="black" font-family="Times New Roman" font-size="16" transform="scale(1 -1)">
  <g id="Spread" transform="translate(0 -99.689)">
   <g id="Layer 1">
    <g id="Group" font-size="100.423" font-family="Colaborate-Thin">
     <text xml:space="preserve" transform="matrix(1.00003 0 0 -1.00003 83.687 14.52)" fill="#666666" stroke="none" stroke-width="2.503" stroke-miterlimit="79.8403193612775"><tspan x="0" y="0">femah</tspan></text>
     <ellipse rx="13.077" ry="13.077" transform="translate(61.53 40.105) rotate(90)" stroke="#ff8200" stroke-width="5.981" fill="#ff8200" stroke-miterlimit="79.8403193612775"/>
     <ellipse rx="13.077" ry="13.077" transform="translate(41.123 19.692) rotate(90)" stroke="#ff8200" stroke-width="5.981" fill="#ff8200" stroke-miterlimit="79.8403193612775"/>
     <ellipse rx="13.077" ry="13.077" transform="translate(41.116 60.516) rotate(90)" stroke="#ff8200" stroke-width="5.981" fill="#ff8200" stroke-miterlimit="79.8403193612775"/>
     <ellipse rx="13.077" ry="13.077" transform="translate(20.709 40.099) rotate(90)" stroke="#ff8200" stroke-width="5.981" fill="#ff8200" stroke-miterlimit="79.8403193612775"/>
     <ellipse rx="13.077" ry="13.077" transform="translate(20.719 80.913) rotate(90)" stroke="#ff8200" stroke-width="5.981" fill="#ff8200" stroke-miterlimit="79.8403193612775"/>
     <path d="M 20.706,90.097 C 25.759,90.097 29.864,85.988 29.867,80.935 C 29.867,75.882 25.759,71.774 20.706,71.774 C 15.653,71.777 11.544,75.882 11.541,80.935 C 11.544,85.988 15.653,90.097 20.706,90.097 Z M 41.103,69.7 C 46.156,69.7 50.261,65.591 50.264,60.538 C 50.261,55.485 46.152,51.377 41.103,51.377 C 36.05,51.38 31.941,55.485 31.938,60.538 C 31.938,65.591 36.046,69.7 41.103,69.7 Z M 20.696,49.286 C 25.752,49.28 29.857,45.178 29.857,40.125 C 29.857,35.068 25.752,30.963 20.696,30.963 C 15.639,30.963 11.534,35.068 11.534,40.125 C 11.534,45.178 15.643,49.286 20.696,49.286 Z M 61.516,49.293 C 66.573,49.29 70.678,45.181 70.678,40.128 C 70.678,35.075 66.569,30.966 61.516,30.966 C 56.463,30.966 52.358,35.072 52.355,40.128 C 52.355,45.181 56.463,49.29 61.516,49.293 Z M 41.109,28.876 C 46.162,28.879 50.271,24.771 50.271,19.711 C 50.268,14.661 46.162,10.556 41.109,10.55 C 36.056,10.556 31.948,14.661 31.948,19.711 C 31.948,24.767 36.056,28.876 41.109,28.876 Z" stroke="#ffffff" stroke-width="3.979" fill="#4c4c4c" marker-start="none" marker-end="none" stroke-miterlimit="79.8403193612775"/>
    </g>
   </g>
  </g>
 </g>
</svg>
